<?xml version="1.0" encoding="utf-8"?>
<!-- Generator: Adobe Illustrator 19.1.0, SVG Export Plug-In . SVG Version: 6.00 Build 0)  -->
<svg version="1.1" id="Layer_1" xmlns="http://www.w3.org/2000/svg" xmlns:xlink="http://www.w3.org/1999/xlink" x="0px" y="0px"
	 viewBox="0 0 960 560" style="enable-background:new 0 0 960 560;" xml:space="preserve">
<style type="text/css">
	.st0{fill:#BE0A2F;}
	.st1{fill:#FDD500;}
	.st2{fill:none;stroke:#FDD500;stroke-width:3;stroke-miterlimit:10;}
</style>
<g>
	<path class="st0" d="M238.4,309.9h-14.4l-21-62.1v62.1h-14.4v-94.7h14.4l21,62.2v-62.2h14.3V309.9z"/>
	<path class="st0" d="M286.7,269h-22.4v25.1h26.5v15.9H250v-94.7h40.7v15.9h-26.4v22.4h22.4V269z"/>
	<path class="st0" d="M345.2,274.7l6.7-59.5h14.2l-12.6,94.7h-14.4l-8.3-55.8l-8.2,55.8h-14.5l-12.7-94.7h14.3l6.7,59.4l8.3-59.4
		h12.1L345.2,274.7z"/>
	<path class="st0" d="M415.7,215.2l13.4,68.5l13.4-68.5h18.8v94.7h-14.4v-25.6l1.3-39.5L434,309.9h-9.8L410,244.8l1.3,39.5v25.6H397
		v-94.7H415.7z"/>
	<path class="st0" d="M509.5,269h-22.4v25.1h26.5v15.9h-40.8v-94.7h40.7v15.9h-26.4v22.4h22.4V269z"/>
	<path class="st0" d="M544.1,247.8l9.6-32.5h16.5l-16.7,46.9l17.1,47.7h-16.7l-9.8-33.1l-9.7,33.1h-16.7l17.1-47.7l-16.7-46.9h16.5
		L544.1,247.8z"/>
	<path class="st0" d="M592.8,309.9h-14.4v-94.7h14.4V309.9z"/>
	<path class="st0" d="M653.1,278.4c-0.4,10.8-2.6,19-6.8,24.5c-4.2,5.5-10.1,8.3-17.8,8.3c-8,0-14.2-3.5-18.5-10.6
		c-4.3-7-6.4-17.1-6.4-30.1v-15.9c0-13,2.2-23,6.6-30.1c4.4-7,10.6-10.6,18.5-10.6c7.7,0,13.6,2.9,17.7,8.6c4,5.8,6.3,14,6.9,24.8
		h-14.4c-0.1-6.7-0.9-11.3-2.3-13.8s-4-3.8-7.8-3.8c-3.8,0-6.6,1.8-8.2,5.4s-2.4,9.5-2.5,17.7v17.9c0,9.4,0.8,15.9,2.4,19.4
		c1.6,3.5,4.3,5.3,8.1,5.3c3.8,0,6.4-1.2,7.8-3.7c1.4-2.4,2.2-6.9,2.4-13.3H653.1z"/>
	<path class="st0" d="M712,271.1c0,12.7-2.3,22.6-6.8,29.6c-4.5,7-10.8,10.5-18.8,10.5c-8,0-14.2-3.5-18.8-10.4s-6.9-16.7-6.9-29.2
		v-16.2c0-13,2.3-23.2,6.8-30.5c4.5-7.3,10.8-11,18.8-11c7.9,0,14.1,3.6,18.7,10.8c4.6,7.2,6.9,17.2,6.9,30.2V271.1z M697.6,255.2
		c0-8.5-0.9-14.9-2.7-19.1s-4.7-6.2-8.5-6.2c-3.8,0-6.6,2-8.4,6c-1.8,4-2.8,10.1-2.8,18.3v16.8c0,8.3,0.9,14.4,2.8,18.3
		s4.7,5.9,8.6,5.9c3.7,0,6.5-1.9,8.3-5.8s2.8-9.8,2.8-17.8V255.2z"/>
</g>
<g>
	<path class="st0" d="M591.9,203c-19.1-80.7-75.7-139.2-142.5-139.2S326,122.3,306.9,203H591.9z"/>
	<path class="st0" d="M306.9,323c19.1,80.7,75.7,139.2,142.5,139.2S572.8,403.7,591.9,323H306.9z"/>
</g>
<g>
	<path class="st0" d="M298.5,203c19.4-87,79.9-150.9,151.7-150.9S582.5,116,601.8,203h10.7c-19.7-95-85.1-165.2-162.7-165.2
		S306.7,108,287,203H298.5z"/>
	<path class="st0" d="M601.8,323c-19.4,88-79.9,150.9-151.7,150.9S317.9,411,298.5,323h-11.4c19.7,95,85.1,164.9,162.7,164.9
		S592.7,418,612.5,323H601.8z"/>
</g>
<g>
	<path class="st1" d="M364.9,371.1h-8.8l-1.7,8.7h-6.8l10-42.7h5.9l10.1,42.7h-6.9L364.9,371.1z M357.5,363.9h6l-3-15.2L357.5,363.9
		z"/>
	<path class="st1" d="M383,364.9v15h-6.5v-42.7h10.9c3.2,0,5.7,1.3,7.6,3.9s2.8,6,2.8,10.2s-0.9,7.5-2.8,9.9
		c-1.9,2.4-4.4,3.6-7.7,3.6H383z M383,357.7h4.4c1.2,0,2.2-0.5,2.9-1.6s1-2.6,1-4.7c0-2.1-0.3-3.8-1-5.1s-1.6-1.9-2.8-1.9H383V357.7
		z"/>
	<path class="st1" d="M408.6,364.9v15h-6.5v-42.7h10.9c3.2,0,5.7,1.3,7.6,3.9s2.8,6,2.8,10.2s-0.9,7.5-2.8,9.9
		c-1.9,2.4-4.4,3.6-7.7,3.6H408.6z M408.6,357.7h4.4c1.2,0,2.2-0.5,2.9-1.6s1-2.6,1-4.7c0-2.1-0.3-3.8-1-5.1s-1.6-1.9-2.8-1.9h-4.5
		V357.7z"/>
	<path class="st1" d="M437.5,364.3h-3.2v15.6h-6.5v-42.7h10.3c3.2,0,5.7,1.1,7.5,3.4c1.8,2.2,2.7,5.4,2.7,9.5
		c0,5.7-1.5,9.6-4.6,11.9l5.6,17.5v0.4h-7L437.5,364.3z M434.3,357.1h3.7c1.3,0,2.3-0.6,2.9-1.7c0.6-1.1,1-2.7,1-4.6
		c0-4.3-1.3-6.4-3.8-6.4h-3.8V357.1z"/>
	<path class="st1" d="M475.3,362.4c0,5.7-1,10.2-3,13.3c-2,3.2-4.9,4.7-8.5,4.7c-3.6,0-6.4-1.6-8.5-4.7c-2.1-3.1-3.1-7.5-3.1-13.2
		v-7.3c0-5.9,1-10.4,3.1-13.7s4.9-4.9,8.5-4.9c3.6,0,6.4,1.6,8.4,4.8s3.1,7.8,3.1,13.6V362.4z M468.8,355.2c0-3.8-0.4-6.7-1.2-8.6
		s-2.1-2.8-3.8-2.8c-1.7,0-3,0.9-3.8,2.7c-0.8,1.8-1.2,4.6-1.3,8.2v7.6c0,3.7,0.4,6.5,1.3,8.2s2.1,2.7,3.9,2.7
		c1.7,0,2.9-0.9,3.8-2.6c0.8-1.7,1.2-4.4,1.3-8V355.2z"/>
	<path class="st1" d="M489.9,368.1l5.4-30.9h7.2l-9.2,42.7h-6.7l-9.2-42.7h7.2L489.9,368.1z"/>
	<path class="st1" d="M522.1,361.4H512v11.3h11.9v7.1h-18.4v-42.7h18.3v7.2H512v10.1h10.1V361.4z"/>
	<path class="st1" d="M527.6,379.9v-42.7h8.5c3.7,0,6.7,1.6,8.9,4.7c2.2,3.2,3.4,7.5,3.4,13v6.9c0,5.6-1.1,10-3.3,13.2
		c-2.2,3.2-5.3,4.8-9.2,4.8H527.6z M534.1,344.4v28.3h1.9c2.2,0,3.7-0.8,4.6-2.3c0.9-1.5,1.3-4.1,1.4-7.8v-7.4c0-4-0.4-6.8-1.3-8.3
		c-0.8-1.6-2.3-2.4-4.3-2.5H534.1z"/>
</g>
<g>
	<g>
		<path class="st0" d="M298.1,415.4c-1.8-3.8-2.6-5.7-4.2-9.6c-2.1,0.9-3.1,1.3-5.2,2.1c1.9,4.8,3,7.2,5.2,11.8
			c-1.3,0.6-1.9,1-3.2,1.6c-3.5-7.2-5.1-10.9-7.9-18.8c8-2.9,12-4.3,20.1-7.2c2.5,6.9,3.9,10.2,6.9,16.5c-1.3,0.6-1.9,1-3.2,1.6
			c-2-4.2-3-6.3-4.8-10.8c-1.9,0.8-2.8,1.1-4.7,1.9c1.6,3.9,2.4,5.8,4.1,9.4C300,414.5,299.3,414.8,298.1,415.4z"/>
		<path class="st0" d="M304.1,436.6c-1.9-3-2.9-4.6-4.6-7.8c-1.9,0.3-2.8,0.4-4.7,0.6c-1.4-2.6-2.1-3.9-3.4-6.5
			c9.5,0,14.2-0.3,23.5-1.4c1.1,1.9,1.7,2.9,2.8,4.7c-5.3,7.7-7.7,11.8-12.3,20.2c-1.6-2.3-2.4-3.5-4-5.9
			C302.5,438.9,303,438.1,304.1,436.6z M303.3,428.2c1.2,2.1,1.8,3.1,3.1,5.2c1.9-2.7,2.9-4,4.9-6.5
			C308.1,427.5,306.5,427.7,303.3,428.2z"/>
		<path class="st0" d="M331.9,451c-1.9-2.1-2.9-3.2-4.7-5.4c-5.4,4.6-8.2,6.9-13.6,11.5c-1.7-2-2.5-3.1-4.1-5.2
			c5.6-4.4,8.4-6.6,14-11c-1.7-2.3-2.6-3.4-4.2-5.8c1.2-0.8,1.8-1.3,2.9-2.1c4.6,6.6,7.1,9.7,12.4,15.5
			C333.5,449.6,333,450,331.9,451z"/>
		<path class="st0" d="M319.2,460.4c0.5-0.4,1.1-0.6,1.9-0.4c0.8,0.2,1.5,0.7,2.2,1.4c0.7,0.7,1.1,1.5,1.3,2.3
			c0.2,0.8,0,1.4-0.5,1.9c-0.5,0.5-1.1,0.6-1.9,0.4c-0.8-0.2-1.5-0.7-2.2-1.4c-0.7-0.8-1.1-1.5-1.3-2.3
			C318.5,461.4,318.7,460.8,319.2,460.4z"/>
		<path class="st0" d="M347.8,481.6c0.5-0.7,0.7-1.4,0.4-2.1c-0.2-0.7-0.9-1.8-1.9-3.1c-1.9-2.5-2.9-4.5-3.2-6.2
			c-0.3-1.7,0.1-3.1,1-4.2c1.2-1.4,2.8-1.9,4.7-1.7c2,0.2,3.9,1.1,5.9,2.6c1.3,1,2.4,2.1,3.1,3.3c0.8,1.2,1.1,2.4,1.2,3.7
			c0,1.2-0.3,2.4-1,3.5c-1.9-1.3-2.8-1.9-4.7-3.3c0.6-0.8,0.8-1.6,0.7-2.3c-0.1-0.8-0.6-1.4-1.5-2.1c-0.8-0.6-1.5-0.9-2.2-0.9
			c-0.7,0-1.3,0.3-1.8,0.9c-0.4,0.5-0.5,1.1-0.2,1.8c0.2,0.8,0.8,1.8,1.8,3.2c1.8,2.3,3,4.2,3.4,5.9c0.4,1.6,0.2,3.2-0.7,4.6
			c-1,1.5-2.6,2.3-4.6,2.2c-2-0.1-4.2-1-6.6-2.8c-1.6-1.2-2.9-2.6-3.8-4.1c-0.9-1.5-1.4-2.9-1.4-4.3c0-1.4,0.5-2.7,1.4-3.7
			c1.9,1.6,2.8,2.4,4.7,3.9c-0.8,1-1.1,1.9-0.9,2.7c0.2,0.9,0.9,1.8,2.1,2.7C345.5,482.9,346.9,482.8,347.8,481.6z"/>
		<path class="st0" d="M372,502.4c-2.2-1.1-3.3-1.6-5.5-2.7c1.7-3.2,2.6-4.9,4.3-8.1c-3.1-1.6-4.6-2.4-7.6-4.2
			c-1.9,3.1-2.8,4.7-4.7,7.9c-2.1-1.3-3.2-1.9-5.3-3.3c4.6-7.2,7-10.8,11.6-18c1.8,1.2,2.8,1.8,4.7,2.9c-1.8,3-2.7,4.5-4.4,7.4
			c2.9,1.7,4.4,2.5,7.4,4.1c1.6-3.1,2.4-4.6,4-7.7c1.9,1,2.9,1.5,4.9,2.4C377.6,490.8,375.7,494.7,372,502.4z"/>
		<path class="st0" d="M399.2,503.5c-0.9,2.7-2.4,4.6-4.7,5.5c-2.3,0.9-5.1,0.8-8.4-0.4c-3.2-1.2-5.4-2.9-6.6-5.1
			c-1.2-2.2-1.1-4.6,0-7.2c0.6-1.3,0.9-2,1.5-3.3c1.2-2.7,3-4.4,5.2-5.2s4.7-0.7,7.6,0.4c2.8,1,4.7,2.5,5.9,4.6
			c1.1,2.1,1.3,4.5,0.5,7.3C399.8,501.4,399.6,502.1,399.2,503.5z M394.8,498.4c0.6-1.8,0.8-3.3,0.4-4.4c-0.4-1.1-1.2-1.9-2.6-2.4
			c-1.4-0.5-2.5-0.5-3.5,0.1s-1.9,1.7-2.6,3.4c-0.6,1.4-0.9,2.1-1.5,3.5c-0.7,1.7-0.9,3.1-0.5,4.3c0.4,1.1,1.3,2,2.9,2.5
			c1.5,0.5,2.7,0.5,3.7,0c1-0.6,1.8-1.7,2.4-3.4C394,500.5,394.3,499.8,394.8,498.4z"/>
		<path class="st0" d="M408.5,507.4c-0.7,2.9-1.1,4.4-1.8,7.3c-2.4-0.6-3.6-0.9-5.9-1.5c2.3-8.2,3.5-12.3,5.9-20.5
			c3.5,1,5.3,1.4,8.8,2.2c2.6,0.6,4.5,1.6,5.8,3.1c1.3,1.6,1.9,3.4,1.5,5.4c-0.3,2.1-1.4,3.6-3.3,4.5c-1.9,0.9-4.3,1.1-7.2,0.4
			C410.8,507.9,410.1,507.7,408.5,507.4z M409.4,503.9c1.5,0.4,2.3,0.5,3.8,0.9c1.1,0.2,2,0.1,2.6-0.3c0.7-0.4,1.1-1.1,1.3-2.1
			c0.2-1,0.1-1.9-0.4-2.7c-0.5-0.7-1.2-1.2-2.1-1.4c-1.5-0.3-2.3-0.5-3.7-0.9C410.4,500,410,501.3,409.4,503.9z"/>
		<path class="st0" d="M416.8,514.6c0.1-0.7,0.5-1.1,1.2-1.4c0.7-0.3,1.5-0.4,2.5-0.2c0.9,0.2,1.7,0.5,2.3,1
			c0.6,0.5,0.8,1.1,0.7,1.8c-0.1,0.7-0.5,1.2-1.2,1.5s-1.6,0.4-2.5,0.2c-1-0.2-1.7-0.5-2.3-1C416.9,515.9,416.7,515.3,416.8,514.6z"
			/>
		<path class="st0" d="M444.6,512.1c-0.1,3-0.1,4.5-0.2,7.5c-2.4-0.1-3.7-0.1-6.1-0.3c0.5-8.5,0.8-12.8,1.4-21.3
			c3.6,0.2,5.4,0.3,9.1,0.3c2.6,0,4.7,0.6,6.4,1.9s2.5,2.9,2.6,5c0.1,2.1-0.6,3.8-2.3,5s-4,1.9-6.9,1.9
			C447,512.2,446.2,512.2,444.6,512.1z M444.7,508.5c1.6,0,2.4,0.1,3.9,0.1c1.1,0,1.9-0.3,2.5-0.8s0.9-1.3,0.9-2.4
			c0-1.1-0.3-1.9-0.9-2.5c-0.6-0.6-1.4-0.9-2.4-1c-1.5,0-2.3,0-3.8-0.1C444.8,504.5,444.8,505.9,444.7,508.5z"/>
		<path class="st0" d="M468.2,515.1c4.2-0.4,6.3-0.7,10.4-1.4c0.2,1.4,0.4,2.1,0.6,3.5c-6.7,1.1-10,1.5-16.7,2
			c-0.6-8.5-0.9-12.8-1.6-21.3c2.1-0.2,3.2-0.2,5.4-0.5C467.1,504.6,467.5,508.1,468.2,515.1z"/>
		<path class="st0" d="M496.1,509.2c-3.2,0.9-4.7,1.2-7.9,1.9c-0.2,1.8-0.4,2.8-0.6,4.6c-2.5,0.5-3.8,0.8-6.4,1.2
			c2.2-9.1,3.1-13.6,4.4-22.6c1.9-0.4,2.9-0.7,4.8-1.2c5.5,7.4,8.4,11,14.8,17.9c-2.5,0.8-3.8,1.2-6.3,1.9
			C497.7,511.4,497.2,510.7,496.1,509.2z M488.6,507.3c2.1-0.5,3.2-0.7,5.3-1.3c-1.8-2.7-2.7-4-4.5-6.7
			C489.1,502.5,489,504.1,488.6,507.3z"/>
		<path class="st0" d="M509.3,497.2c0.2-4.2,0.3-6.3,0.3-10.4c2.2-0.9,3.3-1.4,5.4-2.3c-0.3,6.1-0.6,9.2-1.5,15.4
			c1.2,2.9,1.8,4.3,2.9,7.2c-2.3,0.9-3.5,1.4-5.8,2.2c-1.1-2.9-1.6-4.4-2.7-7.3c-4.8-4.1-7.1-6.2-11.5-10.5c2.2-0.7,3.4-1,5.6-1.8
			C504.8,492.7,506.3,494.2,509.3,497.2z"/>
		<path class="st0" d="M521.4,502.7c-0.3-0.6-0.2-1.2,0.2-1.9s1-1.2,1.9-1.6c0.9-0.4,1.7-0.6,2.5-0.5c0.8,0.1,1.3,0.5,1.6,1.1
			c0.3,0.6,0.3,1.3-0.2,1.9c-0.4,0.7-1.1,1.2-2,1.6c-0.9,0.4-1.7,0.6-2.5,0.4S521.6,503.3,521.4,502.7z"/>
		<path class="st0" d="M545.3,488.1c3.6-2.3,5.4-3.6,8.8-6.2c0.9,1.1,1.3,1.7,2.2,2.9c-5.5,4.1-8.4,6.1-14.3,9.6
			c-4.5-7.3-6.7-11-11.1-18.3c1.9-1.1,2.8-1.7,4.6-2.9C539.5,479.2,541.4,482.1,545.3,488.1z"/>
		<path class="st0" d="M568.6,462.6c2,2,2.9,4.3,2.6,6.8c-0.3,2.5-1.8,5-4.5,7.4c-2.7,2.3-5.3,3.5-7.8,3.5c-2.5,0-4.6-1.2-6.4-3.4
			c-0.9-1.2-1.3-1.7-2.2-2.9c-1.8-2.3-2.5-4.7-2.1-7.1c0.4-2.4,1.7-4.6,4.1-6.6c2.3-2,4.6-3.1,7.1-3.2c2.4-0.1,4.7,0.9,6.8,2.9
			C567,461,567.6,461.5,568.6,462.6z M561.8,464.2c-1.3-1.4-2.6-2.2-3.7-2.4c-1.2-0.2-2.3,0.2-3.5,1.2c-1.1,1-1.7,2.1-1.7,3.2
			c0,1.2,0.6,2.5,1.8,3.9c1,1.2,1.5,1.8,2.4,2.9c1.2,1.4,2.4,2.3,3.6,2.4c1.2,0.2,2.4-0.3,3.7-1.4c1.2-1.1,1.8-2.2,1.8-3.4
			c0-1.2-0.6-2.4-1.9-3.8C563.3,465.8,562.8,465.3,561.8,464.2z"/>
		<path class="st0" d="M586.3,444.4c1.9,1.6,2.7,3.5,2.6,5.8c-0.2,2.3-1.4,4.9-3.6,7.5c-2.4,2.8-4.8,4.4-7.3,4.7
			c-2.5,0.3-4.7-0.6-6.9-2.6c-1-1-1.6-1.5-2.6-2.5c-2.1-2-3.1-4.3-3.1-6.7c0-2.4,1.1-4.7,3.1-7.2c2-2.4,3.9-3.8,6-4.4
			c2-0.5,4.1-0.2,6.2,1.1c-1.4,2-2.2,3-3.7,4.9c-1.2-0.9-2.2-1.3-3-1.2c-0.8,0.1-1.7,0.7-2.7,1.9c-1,1.2-1.4,2.3-1.3,3.3
			c0.2,1,0.9,2.2,2.3,3.4c1.2,1.1,1.8,1.6,3,2.7c1.6,1.4,2.9,2.1,4,2.1c1.1,0,2.1-0.7,3.2-2c1.1-1.3,1.6-2.4,1.6-3.2
			c0-0.8-0.6-1.8-1.7-2.7C584,447.4,584.8,446.4,586.3,444.4z"/>
		<path class="st0" d="M599.1,429.5c-1.8,3.2-2.7,4.7-4.7,7.8c1.1,1.5,1.6,2.3,2.7,3.9c-1.6,2.4-2.4,3.6-4,5.9
			c-4.5-8.4-7-12.4-12.2-20.2c1.2-1.8,1.7-2.8,2.8-4.7c9.2,1.1,13.9,1.4,23.5,1.4c-1.3,2.7-2,4-3.5,6.6
			C601.9,429.9,601,429.8,599.1,429.5z M592.2,434.1c1.3-2,1.9-3.1,3.1-5.2c-3.2-0.5-4.8-0.8-8-1.4
			C589.3,430.2,590.3,431.5,592.2,434.1z"/>
		<path class="st0" d="M608.4,412.8c2-4.5,2.9-6.8,4.6-11.6c1.3,0.5,2,0.7,3.4,1.2c-2.7,7.6-4.3,11.2-7.6,18.2
			c-7.7-3.8-11.5-5.7-19.1-9.4c1.1-2.2,1.6-3.4,2.6-5.7C598.6,408.5,601.9,409.9,608.4,412.8z"/>
	</g>
</g>
<circle class="st1" cx="335.8" cy="355.4" r="8"/>
<circle class="st1" cx="562.8" cy="355.4" r="8"/>
<circle class="st2" cx="449.5" cy="133.4" r="16"/>
<g>
	<line class="st2" x1="502" y1="136.5" x2="465" y2="136.5"/>
	<line class="st2" x1="502" y1="130.5" x2="465" y2="130.5"/>
	<line class="st2" x1="493" y1="124.5" x2="463" y2="124.5"/>
	<line class="st2" x1="493" y1="142.5" x2="463" y2="142.5"/>
</g>
<g>
	<line class="st2" x1="397" y1="130.5" x2="434" y2="130.5"/>
	<line class="st2" x1="397" y1="136.5" x2="434" y2="136.5"/>
	<line class="st2" x1="406" y1="142.5" x2="436" y2="142.5"/>
	<line class="st2" x1="406" y1="124.5" x2="436" y2="124.5"/>
</g>
<g>
	<line class="st2" x1="452.5" y1="81" x2="452.5" y2="118"/>
	<line class="st2" x1="446.5" y1="81" x2="446.5" y2="118"/>
	<line class="st2" x1="440.5" y1="90" x2="440.5" y2="120"/>
	<line class="st2" x1="458.5" y1="90" x2="458.5" y2="120"/>
</g>
<g>
	<line class="st2" x1="446.5" y1="186" x2="446.5" y2="149"/>
	<line class="st2" x1="452.5" y1="186" x2="452.5" y2="149"/>
	<line class="st2" x1="458.5" y1="177" x2="458.5" y2="147"/>
	<line class="st2" x1="440.5" y1="177" x2="440.5" y2="147"/>
</g>
</svg>
